<?xml version="1.0" standalone="no"?>
<!DOCTYPE svg PUBLIC "-//W3C//DTD SVG 20010904//EN"
 "http://www.w3.org/TR/2001/REC-SVG-20010904/DTD/svg10.dtd">
<svg version="1.0" xmlns="http://www.w3.org/2000/svg"
 width="100.000000pt" height="100.000000pt" viewBox="0 0 100.000000 100.000000"
 preserveAspectRatio="xMidYMid meet">
<metadata>
Created by potrace 1.14, written by Peter Selinger 2001-2017
</metadata>
<g transform="translate(0.000000,100.000000) scale(0.100000,-0.100000)"
fill="#000000" stroke="none">
<path d="M0 500 l0 -500 500 0 500 0 0 500 0 500 -500 0 -500 0 0 -500z m525
290 c0 -18 -6 -26 -23 -28 -24 -4 -38 18 -28 44 3 9 15 14 28 12 17 -2 23 -10
23 -28z m-106 -9 c13 -24 -9 -57 -33 -48 -23 9 -31 34 -16 52 17 20 37 19 49
-4z m215 -3 c13 -22 -14 -54 -38 -45 -16 6 -22 48 -9 61 11 11 35 3 47 -16z
m-310 -60 c13 -22 -14 -54 -38 -45 -16 6 -22 48 -9 61 11 11 35 3 47 -16z
m405 3 c13 -24 -9 -57 -33 -48 -23 9 -31 34 -16 52 17 20 37 19 49 -4z m-464
-111 c0 -18 -6 -26 -23 -28 -13 -2 -25 3 -28 12 -10 26 4 48 28 44 17 -2 23
-10 23 -28z m525 15 c10 -12 10 -18 0 -30 -27 -32 -71 -8 -56 30 3 8 14 15 24
15 11 0 25 -7 32 -15z m-545 -113 c3 -8 -1 -22 -9 -30 -17 -17 -44 -10 -53 14
-4 10 1 22 11 30 21 15 42 9 51 -14z m575 -6 c0 -23 -30 -41 -48 -30 -23 15
-25 29 -7 48 12 12 21 13 36 6 10 -6 19 -17 19 -24z m-556 -98 c13 -22 -14
-54 -38 -45 -16 6 -22 48 -9 61 11 11 35 3 47 -16z m526 3 c7 -15 6 -24 -6
-36 -19 -18 -33 -16 -48 7 -7 12 -6 21 3 32 18 22 38 20 51 -3z m-465 -111 c0
-18 -6 -26 -23 -28 -24 -4 -38 18 -28 44 3 9 15 14 28 12 17 -2 23 -10 23 -28z
m408 18 c7 -21 -12 -48 -34 -48 -22 0 -34 22 -25 45 7 18 53 20 59 3z m-309
-64 c8 -21 -11 -44 -36 -44 -21 0 -33 22 -24 45 7 20 52 19 60 -1z m211 -14
c0 -18 -6 -26 -23 -28 -24 -4 -38 18 -28 44 3 9 15 14 28 12 17 -2 23 -10 23
-28z m-107 -16 c4 -29 -23 -51 -43 -34 -16 13 -20 42 -8 54 14 14 48 1 51 -20z"/>
</g>
</svg>
